<?xml version="1.0" standalone="no"?>
<!DOCTYPE svg PUBLIC "-//W3C//DTD SVG 20010904//EN"
 "http://www.w3.org/TR/2001/REC-SVG-20010904/DTD/svg10.dtd">
<svg version="1.0" xmlns="http://www.w3.org/2000/svg"
 width="42.000000pt" height="41.000000pt" viewBox="0 0 42.000000 41.000000"
 preserveAspectRatio="xMidYMid meet">

<g transform="translate(0.000000,41.000000) scale(0.100000,-0.100000)"
fill="#000000" stroke="none">
<path d="M70 200 l0 -160 140 0 140 0 0 160 0 160 -140 0 -140 0 0 -160z m240
100 c0 -6 -40 -10 -101 -10 -64 0 -98 4 -94 10 3 6 48 10 101 10 56 0 94 -4
94 -10z m20 -70 c0 -5 -18 -10 -40 -10 l-40 0 0 -55 c0 -54 0 -55 29 -55 21 0
32 6 36 20 8 25 25 26 25 3 0 -34 -15 -44 -61 -41 l-44 3 -3 63 c-3 53 -6 62
-22 62 -14 0 -20 -10 -25 -40 -7 -40 -51 -90 -81 -90 -21 0 -17 18 5 25 27 8
42 29 51 70 l8 35 -39 0 c-21 0 -39 5 -39 10 0 6 47 10 120 10 73 0 120 -4
120 -10z"/>
</g>
</svg>
