<?xml version="1.0" standalone="no"?>
<!DOCTYPE svg PUBLIC "-//W3C//DTD SVG 20010904//EN"
 "http://www.w3.org/TR/2001/REC-SVG-20010904/DTD/svg10.dtd">
<svg version="1.0" xmlns="http://www.w3.org/2000/svg"
 width="64.000000pt" height="64.000000pt" viewBox="0 0 64.000000 64.000000"
 preserveAspectRatio="xMidYMid meet">
<metadata>
Created by potrace 1.10, written by Peter Selinger 2001-2011
</metadata>
<g transform="translate(0.000000,64.000000) scale(0.100000,-0.100000)"
fill="#000000" stroke="none">
<path d="M190 400 l0 -160 140 0 140 0 0 160 0 160 -140 0 -140 0 0 -160z
m240 100 c0 -6 -40 -10 -101 -10 -64 0 -98 4 -94 10 3 6 48 10 101 10 56 0 94
-4 94 -10z m20 -70 c0 -5 -18 -10 -40 -10 l-40 0 0 -55 c0 -55 0 -55 31 -55
22 0 32 5 36 20 7 25 23 26 23 1 0 -28 -24 -43 -67 -39 l-38 3 -3 63 c-3 53
-6 62 -22 62 -14 0 -20 -10 -25 -40 -7 -40 -51 -90 -81 -90 -20 0 -17 18 5 25
27 8 48 35 56 73 7 32 7 32 -34 32 -23 0 -41 5 -41 10 0 6 47 10 120 10 73 0
120 -4 120 -10z m-120 -128 c0 -21 -5 -28 -20 -29 -24 -2 -26 14 -3 39 21 24
23 23 23 -10z"/>
<path d="M212 178 c-16 -16 -15 -70 1 -92 9 -12 23 -17 42 -14 24 2 31 8 33
31 3 23 0 27 -20 26 -13 0 -17 -3 -10 -6 14 -5 16 -29 3 -37 -22 -14 -41 7
-41 45 0 42 21 62 43 40 17 -17 31 -13 17 4 -15 18 -51 20 -68 3z"/>
<path d="M322 148 c-7 -7 -12 -25 -12 -40 0 -21 6 -29 26 -34 15 -4 30 -2 37
6 9 10 7 11 -9 6 -13 -4 -26 -1 -34 9 -11 13 -8 15 19 15 19 0 31 5 31 13 0
16 -20 37 -35 37 -6 0 -16 -5 -23 -12z"/>
<path d="M394 114 c-2 -54 14 -59 18 -6 4 52 31 50 39 -3 l7 -40 -2 45 c-1 43
-3 45 -31 46 -29 2 -30 0 -31 -42z"/>
</g>
</svg>
